<?xml version="1.0" encoding="UTF-8"?>
<!DOCTYPE svg PUBLIC "-//W3C//DTD SVG 1.1//EN" "http://www.w3.org/Graphics/SVG/1.1/DTD/svg11.dtd">
<svg xmlns="http://www.w3.org/2000/svg" version="1.1" width="225px" height="225px" style="shape-rendering:geometricPrecision; text-rendering:geometricPrecision; image-rendering:optimizeQuality; fill-rule:evenodd; clip-rule:evenodd" xmlns:xlink="http://www.w3.org/1999/xlink">
<g><path style="opacity:1" fill="#fefefe" d="M -0.5,-0.5 C 74.5,-0.5 149.5,-0.5 224.5,-0.5C 224.5,74.5 224.5,149.5 224.5,224.5C 149.5,224.5 74.5,224.5 -0.5,224.5C -0.5,149.5 -0.5,74.5 -0.5,-0.5 Z"/></g>
<g><path style="opacity:1" fill="#fd6f18" d="M 109.5,42.5 C 117.201,42.3621 120.367,46.0288 119,53.5C 114.333,60.1667 109.667,60.1667 105,53.5C 103.776,48.626 105.276,44.9593 109.5,42.5 Z"/></g>
<g><path style="opacity:1" fill="#4fc0e6" d="M 97.5,58.5 C 102.1,62.7616 106.767,67.095 111.5,71.5C 115.985,67.5154 120.318,63.3487 124.5,59C 125.167,58.3333 125.833,58.3333 126.5,59C 135,67.5 143.5,76 152,84.5C 152.667,85.1667 152.667,85.8333 152,86.5C 143.319,95.3478 134.486,104.014 125.5,112.5C 120.848,108.349 116.348,104.015 112,99.5C 107.833,103.667 103.667,107.833 99.5,112C 98.8333,112.667 98.1667,112.667 97.5,112C 88.6522,103.319 79.9856,94.4858 71.5,85.5C 80.1881,76.4794 88.8547,67.4794 97.5,58.5 Z"/></g>
<g><path style="opacity:1" fill="#0374ca" d="M 111.5,72.5 C 116.146,76.8115 120.813,81.1449 125.5,85.5C 121.47,90.3643 116.97,94.6977 112,98.5C 107.03,94.6977 102.53,90.3643 98.5,85.5C 103.188,81.479 107.521,77.1456 111.5,72.5 Z"/></g>
<g><path style="opacity:1" fill="#0f73c8" d="M 57.5,119.5 C 58.8333,119.5 60.1667,119.5 61.5,119.5C 61.5,121.5 61.5,123.5 61.5,125.5C 55.5,125.5 49.5,125.5 43.5,125.5C 43.5,124.5 43.5,123.5 43.5,122.5C 48.1667,122.5 52.8333,122.5 57.5,122.5C 57.5,121.5 57.5,120.5 57.5,119.5 Z"/></g>
<g><path style="opacity:1" fill="#1875c8" d="M 102.5,122.5 C 108.833,122.5 115.167,122.5 121.5,122.5C 121.5,123.5 121.5,124.5 121.5,125.5C 115.167,125.5 108.833,125.5 102.5,125.5C 102.5,124.5 102.5,123.5 102.5,122.5 Z"/></g>
<g><path style="opacity:1" fill="#2478cb" d="M 42.5,128.5 C 44.1667,128.5 45.8333,128.5 47.5,128.5C 47.5,134.833 47.5,141.167 47.5,147.5C 51.1916,148.029 54.3583,147.029 57,144.5C 57.9964,138.666 55.4964,136.333 49.5,137.5C 49.5,136.167 49.5,134.833 49.5,133.5C 53.8514,134.467 56.1847,132.8 56.5,128.5C 58.1667,128.5 59.8333,128.5 61.5,128.5C 61.9193,131.325 60.9193,133.491 58.5,135C 64.1937,140.862 63.527,145.862 56.5,150C 51.8452,150.499 47.1785,150.666 42.5,150.5C 42.5,143.167 42.5,135.833 42.5,128.5 Z"/></g>
<g><path style="opacity:1" fill="#1e76ca" d="M 69.5,128.5 C 82.7552,127.017 87.5885,132.683 84,145.5C 79.3099,151.904 73.6432,152.904 67,148.5C 66.2935,146.919 65.4601,145.419 64.5,144C 66.1667,143.333 67.8333,143.333 69.5,144C 73.2584,148.683 76.7584,148.516 80,143.5C 80.9285,139.756 80.4285,136.256 78.5,133C 74.8546,130.661 71.8546,131.328 69.5,135C 67.8333,135.667 66.1667,135.667 64.5,135C 65.5937,132.273 67.2604,130.107 69.5,128.5 Z"/></g>
<g><path style="opacity:1" fill="#1c75c9" d="M 86.5,128.5 C 90.5164,127.9 94.0164,128.9 97,131.5C 97.4995,137.825 97.6662,144.158 97.5,150.5C 95.8333,150.5 94.1667,150.5 92.5,150.5C 92.6661,144.824 92.4994,139.157 92,133.5C 90.3005,132.594 88.4672,132.261 86.5,132.5C 86.5,131.167 86.5,129.833 86.5,128.5 Z"/></g>
<g><path style="opacity:1" fill="#2c7acc" d="M 100.5,128.5 C 102.167,128.5 103.833,128.5 105.5,128.5C 105.334,133.511 105.501,138.511 106,143.5C 108.739,147.782 112.073,148.448 116,145.5C 116.499,139.843 116.666,134.176 116.5,128.5C 118.167,128.5 119.833,128.5 121.5,128.5C 121.666,134.176 121.499,139.843 121,145.5C 119.791,149.44 117.124,151.107 113,150.5C 110.53,150.66 108.364,149.993 106.5,148.5C 104.821,150.104 102.821,150.771 100.5,150.5C 100.5,143.167 100.5,135.833 100.5,128.5 Z"/></g>
<g><path style="opacity:1" fill="#2177ca" d="M 127.5,128.5 C 132.515,129.513 137.515,129.68 142.5,129C 143.667,130.167 144.833,131.333 146,132.5C 146.499,138.491 146.666,144.491 146.5,150.5C 144.833,150.5 143.167,150.5 141.5,150.5C 141.666,144.824 141.499,139.157 141,133.5C 138.845,132.317 136.845,132.65 135,134.5C 133.416,133.139 131.582,132.472 129.5,132.5C 129.334,136.514 129.501,140.514 130,144.5C 133.225,142.078 134.059,139.078 132.5,135.5C 134.5,135.5 136.5,135.5 138.5,135.5C 137.295,141.071 134.629,145.904 130.5,150C 128.527,150.495 126.527,150.662 124.5,150.5C 124.334,144.158 124.5,137.825 125,131.5C 126.045,130.627 126.878,129.627 127.5,128.5 Z"/></g>
<g><path style="opacity:1" fill="#1d76ca" d="M 153.5,128.5 C 156.85,128.335 160.183,128.502 163.5,129C 166.534,130.191 168.201,132.358 168.5,135.5C 164.869,134.638 161.369,133.305 158,131.5C 154.124,131.949 153.29,133.449 155.5,136C 159.523,136.145 163.356,136.979 167,138.5C 169.529,143.186 168.696,147.019 164.5,150C 160.5,150.667 156.5,150.667 152.5,150C 149.976,148.117 148.642,145.617 148.5,142.5C 150.167,142.5 151.833,142.5 153.5,142.5C 154.68,147.66 157.68,148.827 162.5,146C 163.991,143.978 163.658,142.312 161.5,141C 158.833,140.667 156.167,140.333 153.5,140C 149.787,138.309 148.621,135.475 150,131.5C 151.145,130.364 152.312,129.364 153.5,128.5 Z"/></g>
<g><path style="opacity:1" fill="#1974ca" d="M 169.5,128.5 C 172.187,128.336 174.854,128.503 177.5,129C 178.308,129.308 178.975,129.808 179.5,130.5C 180.462,137.108 180.795,143.774 180.5,150.5C 179.167,150.5 177.833,150.5 176.5,150.5C 176.666,144.824 176.499,139.157 176,133.5C 173.959,132.577 171.792,132.244 169.5,132.5C 169.5,131.167 169.5,129.833 169.5,128.5 Z"/></g>
<g><path style="opacity:1" fill="#5bc3e7" d="M 73.5,157.5 C 74.7773,158.694 75.4439,160.36 75.5,162.5C 75.1667,164.167 74.8333,165.833 74.5,167.5C 73.513,164.232 73.1796,160.898 73.5,157.5 Z"/></g>
<g><path style="opacity:1" fill="#44bde7" d="M 134.5,157.5 C 135.777,158.694 136.444,160.36 136.5,162.5C 136.167,164.167 135.833,165.833 135.5,167.5C 134.513,164.232 134.18,160.898 134.5,157.5 Z"/></g>
<g><path style="opacity:1" fill="#67c7e8" d="M 174.5,157.5 C 175.496,157.414 176.329,157.748 177,158.5C 178.303,160.94 179.47,163.44 180.5,166C 180.167,166.5 179.833,167 179.5,167.5C 178.532,166.511 177.365,165.844 176,165.5C 174.091,166.156 172.258,166.656 170.5,167C 171.975,163.885 173.308,160.718 174.5,157.5 Z"/></g>
<g><path style="opacity:1" fill="#53c1e7" d="M 142.5,157.5 C 145.247,157.187 147.914,157.52 150.5,158.5C 149.675,159.386 148.675,159.719 147.5,159.5C 146.833,170.167 146.167,170.167 145.5,159.5C 143.821,159.715 142.821,159.048 142.5,157.5 Z"/></g>
<g><path style="opacity:1" fill="#60c4e7" d="M 45.5,157.5 C 47.4672,157.261 49.3005,157.594 51,158.5C 51.6877,159.332 51.521,159.998 50.5,160.5C 45.8877,158.948 44.5544,160.448 46.5,165C 47.8989,165.595 49.2322,165.428 50.5,164.5C 51.7112,165.274 51.7112,166.107 50.5,167C 42.4079,167.09 40.7412,163.923 45.5,157.5 Z"/></g>
<g><path style="opacity:1" fill="#51c1e7" d="M 117.5,157.5 C 119.91,157.921 121.743,159.254 123,161.5C 123.45,158.894 124.95,157.561 127.5,157.5C 127.82,160.898 127.487,164.232 126.5,167.5C 125.692,165.577 125.192,163.577 125,161.5C 123.388,165.466 121.721,165.466 120,161.5C 119.808,163.577 119.308,165.577 118.5,167.5C 117.513,164.232 117.18,160.898 117.5,157.5 Z"/></g>
<g><path style="opacity:1" fill="#69c7e8" d="M 57.5,157.5 C 58.5,157.5 59.5,157.5 60.5,157.5C 60.5,158.833 60.5,160.167 60.5,161.5C 61.8333,161.5 63.1667,161.5 64.5,161.5C 64.238,160.022 64.5713,158.689 65.5,157.5C 66.8333,160.833 66.8333,164.167 65.5,167.5C 64.5713,166.311 64.238,164.978 64.5,163.5C 63.1667,163.5 61.8333,163.5 60.5,163.5C 60.5,164.833 60.5,166.167 60.5,167.5C 59.5,167.5 58.5,167.5 57.5,167.5C 57.5,164.167 57.5,160.833 57.5,157.5 Z"/></g>
<g><path style="opacity:1" fill="#5ac3e7" d="M 105.5,157.5 C 106.496,157.414 107.329,157.748 108,158.5C 110.036,161.402 110.869,164.402 110.5,167.5C 107.851,164.961 105.184,164.961 102.5,167.5C 102.167,167.167 101.833,166.833 101.5,166.5C 103.122,163.592 104.456,160.592 105.5,157.5 Z"/></g>
<g><path style="opacity:1" fill="#68c7e8" d="M 156.5,157.5 C 158.857,157.337 161.19,157.503 163.5,158C 166.08,160.12 166.08,162.287 163.5,164.5C 163.977,165.478 164.643,166.311 165.5,167C 164.5,167.667 163.5,167.667 162.5,167C 161.692,165.294 160.359,164.461 158.5,164.5C 158.719,165.675 158.386,166.675 157.5,167.5C 156.513,164.232 156.18,160.898 156.5,157.5 Z"/></g>
<g><path style="opacity:1" fill="#5dc4e7" d="M 81.5,157.5 C 84.1682,158.457 85.6682,160.457 86,163.5C 86.813,161.564 87.313,159.564 87.5,157.5C 88.5,157.5 89.5,157.5 90.5,157.5C 91.5,165.5 92.5,165.5 93.5,157.5C 94.675,157.281 95.675,157.614 96.5,158.5C 94.8954,161.314 93.8954,164.314 93.5,167.5C 92.5,167.5 91.5,167.5 90.5,167.5C 89.8518,161.021 88.5184,160.854 86.5,167C 85.6683,167.688 85.0016,167.521 84.5,166.5C 83.2946,163.55 82.2946,160.55 81.5,157.5 Z"/></g>
<g><path style="opacity:1" fill="#5fc4e6" d="M 84.5,173.5 C 86.1992,173.34 87.8659,173.506 89.5,174C 85.5,175 85.5,176 89.5,177C 85.5,178 85.5,179 89.5,180C 87.8659,180.494 86.1992,180.66 84.5,180.5C 84.5,178.167 84.5,175.833 84.5,173.5 Z"/></g>
<g><path style="opacity:1" fill="#73cae8" d="M 140.5,173.5 C 142.167,173.5 143.833,173.5 145.5,173.5C 145.88,176.792 144.547,179.125 141.5,180.5C 140.526,178.257 140.192,175.924 140.5,173.5 Z"/></g>
<g><path style="opacity:1" fill="#66c6e8" d="M 44.5,173.5 C 45.9778,173.238 47.3112,173.571 48.5,174.5C 47.7376,174.911 46.7376,175.077 45.5,175C 44.6634,176.011 44.33,177.178 44.5,178.5C 45.9778,178.238 47.3112,178.571 48.5,179.5C 42.7938,180.458 41.4604,178.458 44.5,173.5 Z"/></g>
<g><path style="opacity:1" fill="#69c7e8" d="M 63.5,173.5 C 65.371,173.859 66.871,174.859 68,176.5C 68.3333,175.5 68.6667,174.5 69,173.5C 69.6667,175.833 69.6667,178.167 69,180.5C 67.6152,179.449 66.6152,178.116 66,176.5C 65.7811,177.938 65.2811,179.271 64.5,180.5C 63.5258,178.257 63.1924,175.924 63.5,173.5 Z"/></g>
<g><path style="opacity:1" fill="#64c6e7" d="M 155.5,174.5 C 157.288,173.378 159.288,173.211 161.5,174C 160.036,175.864 159.036,178.031 158.5,180.5C 158.036,178.025 157.036,176.025 155.5,174.5 Z"/></g>
<g><path style="opacity:1" fill="#6dc8e8" d="M 75.5,173.5 C 82.1667,174.167 82.1667,174.833 75.5,175.5C 75.5,176.5 75.5,177.5 75.5,178.5C 77.1992,178.34 78.8659,178.506 80.5,179C 74.7563,181.387 73.0896,179.554 75.5,173.5 Z"/></g>
<g><path style="opacity:1" fill="#7cccea" d="M 94.5,173.5 C 96.1439,173.286 97.6439,173.62 99,174.5C 98.8124,176.685 98.6457,178.685 98.5,180.5C 97.1841,177.972 96.0174,177.972 95,180.5C 94.5034,178.19 94.3367,175.857 94.5,173.5 Z"/></g>
<g><path style="opacity:1" fill="#5bc3e7" d="M 109.5,173.5 C 111.048,173.821 111.715,174.821 111.5,176.5C 112.5,176.5 113.5,176.5 114.5,176.5C 115.833,176.833 115.833,177.167 114.5,177.5C 113.5,177.5 112.5,177.5 111.5,177.5C 111.719,178.675 111.386,179.675 110.5,180.5C 109.526,178.257 109.192,175.924 109.5,173.5 Z"/></g>
<g><path style="opacity:1" fill="#93d4ed" d="M 121.5,173.5 C 127.016,173.473 128.349,175.64 125.5,180C 119.738,180.418 118.404,178.251 121.5,173.5 Z"/></g>
<g><path style="opacity:1" fill="#63c5e7" d="M 55.5,173.5 C 58.2427,174.985 59.4093,177.318 59,180.5C 58.2613,179.426 57.2613,178.759 56,178.5C 54.9433,179.627 53.7766,180.127 52.5,180C 53.7929,177.948 54.7929,175.781 55.5,173.5 Z"/></g>
<g><path style="opacity:1" fill="#6bc7e8" d="M 167.5,173.5 C 170.243,174.985 171.409,177.318 171,180.5C 169.333,177.833 167.667,177.833 166,180.5C 165.865,178.078 166.365,175.745 167.5,173.5 Z"/></g>
<g><path style="opacity:1" fill="#60c4e7" d="M 131.5,173.5 C 132.978,173.238 134.311,173.571 135.5,174.5C 134.738,174.911 133.738,175.077 132.5,175C 133.579,175.956 134.745,176.789 136,177.5C 136.617,178.449 136.451,179.282 135.5,180C 134.056,180.781 132.723,180.614 131.5,179.5C 132.603,179.002 133.603,178.669 134.5,178.5C 132.244,177.579 131.244,175.912 131.5,173.5 Z"/></g>
<g><path style="opacity:1" fill="#52c0e5" d="M 176.5,173.5 C 177.461,175.265 177.795,177.265 177.5,179.5C 181.172,180.045 180.838,180.378 176.5,180.5C 176.5,178.167 176.5,175.833 176.5,173.5 Z"/></g>
</svg>
